%TF.GenerationSoftware,KiCad,Pcbnew,9.0.7*%
%TF.CreationDate,2026-02-17T18:01:12+00:00*%
%TF.ProjectId,Lohithaksha_Sender_PCB_Design_FYP,4c6f6869-7468-4616-9b73-68615f53656e,rev?*%
%TF.SameCoordinates,Original*%
%TF.FileFunction,Copper,L2,Bot*%
%TF.FilePolarity,Positive*%
%FSLAX46Y46*%
G04 Gerber Fmt 4.6, Leading zero omitted, Abs format (unit mm)*
G04 Created by KiCad (PCBNEW 9.0.7) date 2026-02-17 18:01:12*
%MOMM*%
%LPD*%
G01*
G04 APERTURE LIST*
%TA.AperFunction,ComponentPad*%
%ADD10R,1.700000X1.700000*%
%TD*%
%TA.AperFunction,ComponentPad*%
%ADD11C,1.700000*%
%TD*%
%TA.AperFunction,ComponentPad*%
%ADD12R,1.600000X1.600000*%
%TD*%
%TA.AperFunction,ComponentPad*%
%ADD13O,1.600000X1.600000*%
%TD*%
%TA.AperFunction,ViaPad*%
%ADD14C,1.300000*%
%TD*%
%TA.AperFunction,Conductor*%
%ADD15C,0.500000*%
%TD*%
G04 APERTURE END LIST*
D10*
%TO.P,Pulse-Oximeter1,1,SDA*%
%TO.N,Net-(IR1-SDA)*%
X160810000Y-63500000D03*
D11*
%TO.P,Pulse-Oximeter1,2,SCL*%
%TO.N,Net-(IR1-SCL)*%
X158270000Y-63500000D03*
%TO.P,Pulse-Oximeter1,3,GND*%
%TO.N,Net-(ECG_Arduino1-GND)*%
X155730000Y-63500000D03*
%TO.P,Pulse-Oximeter1,4,5V*%
%TO.N,Net-(A1-+5V)*%
X153190000Y-63500000D03*
%TD*%
D10*
%TO.P,ECG_Arduino1,1,GND*%
%TO.N,Net-(ECG_Arduino1-GND)*%
X129960000Y-64500000D03*
D11*
%TO.P,ECG_Arduino1,2,VCC*%
%TO.N,Net-(A1-+5V)*%
X132500000Y-64500000D03*
%TO.P,ECG_Arduino1,3,Analog_Out_A1*%
%TO.N,Net-(A1-A1)*%
X135040000Y-64500000D03*
%TD*%
D10*
%TO.P,U1,1,GND*%
%TO.N,Net-(U1-GND)*%
X143210500Y-70875000D03*
D11*
%TO.P,U1,2,VCC*%
%TO.N,Net-(A1-3V3)*%
X145750500Y-70875000D03*
%TO.P,U1,3,CE*%
%TO.N,Net-(A1-D8)*%
X143210500Y-73415000D03*
%TO.P,U1,4,~{CSN}*%
%TO.N,Net-(A1-D7)*%
X145750500Y-73415000D03*
%TO.P,U1,5,SCK*%
%TO.N,Net-(A1-D13)*%
X143210500Y-75955000D03*
%TO.P,U1,6,MOSI*%
%TO.N,Net-(A1-D11)*%
X145750500Y-75955000D03*
%TO.P,U1,7,MISO*%
%TO.N,Net-(A1-D12)*%
X143210500Y-78495000D03*
%TO.P,U1,8,IRQ*%
%TO.N,unconnected-(U1-IRQ-Pad8)*%
X145750500Y-78495000D03*
%TD*%
D10*
%TO.P,IR1,1,SDA*%
%TO.N,Net-(IR1-SDA)*%
X137000000Y-74420000D03*
D11*
%TO.P,IR1,2,SCL*%
%TO.N,Net-(IR1-SCL)*%
X137000000Y-76960000D03*
%TO.P,IR1,3,GND*%
%TO.N,Net-(ECG_Arduino1-GND)*%
X137000000Y-79500000D03*
%TO.P,IR1,4,5V*%
%TO.N,Net-(A1-+5V)*%
X137000000Y-82040000D03*
%TD*%
D10*
%TO.P,LCD_I2C_20X1,1,5V*%
%TO.N,Net-(A1-+5V)*%
X129000000Y-74380000D03*
D11*
%TO.P,LCD_I2C_20X1,2,GND*%
%TO.N,Net-(ECG_Arduino1-GND)*%
X129000000Y-76920000D03*
%TO.P,LCD_I2C_20X1,3,SCL*%
%TO.N,Net-(IR1-SCL)*%
X129000000Y-79460000D03*
%TO.P,LCD_I2C_20X1,4,SDA*%
%TO.N,Net-(IR1-SDA)*%
X129000000Y-82000000D03*
%TD*%
D12*
%TO.P,A1,1,NC*%
%TO.N,unconnected-(A1-NC-Pad1)*%
X160100000Y-41240000D03*
D13*
%TO.P,A1,2,IOREF*%
%TO.N,unconnected-(A1-IOREF-Pad2)*%
X157560000Y-41240000D03*
%TO.P,A1,3,~{RESET}*%
%TO.N,unconnected-(A1-~{RESET}-Pad3)*%
X155020000Y-41240000D03*
%TO.P,A1,4,3V3*%
%TO.N,Net-(A1-3V3)*%
X152480000Y-41240000D03*
%TO.P,A1,5,+5V*%
%TO.N,Net-(A1-+5V)*%
X149940000Y-41240000D03*
%TO.P,A1,6,GND*%
%TO.N,Net-(U1-GND)*%
X147400000Y-41240000D03*
%TO.P,A1,7,GND*%
%TO.N,unconnected-(A1-GND-Pad7)*%
X144860000Y-41240000D03*
%TO.P,A1,8,VIN*%
%TO.N,unconnected-(A1-VIN-Pad8)*%
X142320000Y-41240000D03*
%TO.P,A1,9,A0*%
%TO.N,unconnected-(A1-A0-Pad9)*%
X137240000Y-41240000D03*
%TO.P,A1,10,A1*%
%TO.N,Net-(A1-A1)*%
X134700000Y-41240000D03*
%TO.P,A1,11,A2*%
%TO.N,unconnected-(A1-A2-Pad11)*%
X132160000Y-41240000D03*
%TO.P,A1,12,A3*%
%TO.N,unconnected-(A1-A3-Pad12)*%
X129620000Y-41240000D03*
%TO.P,A1,13,SDA/A4*%
%TO.N,unconnected-(A1-SDA{slash}A4-Pad13)*%
X127080000Y-41240000D03*
%TO.P,A1,14,SCL/A5*%
%TO.N,unconnected-(A1-SCL{slash}A5-Pad14)*%
X124540000Y-41240000D03*
%TO.P,A1,15,D0/RX*%
%TO.N,unconnected-(A1-D0{slash}RX-Pad15)*%
X124540000Y-89500000D03*
%TO.P,A1,16,D1/TX*%
%TO.N,unconnected-(A1-D1{slash}TX-Pad16)*%
X127080000Y-89500000D03*
%TO.P,A1,17,D2*%
%TO.N,unconnected-(A1-D2-Pad17)*%
X129620000Y-89500000D03*
%TO.P,A1,18,D3*%
%TO.N,unconnected-(A1-D3-Pad18)*%
X132160000Y-89500000D03*
%TO.P,A1,19,D4*%
%TO.N,unconnected-(A1-D4-Pad19)*%
X134700000Y-89500000D03*
%TO.P,A1,20,D5*%
%TO.N,unconnected-(A1-D5-Pad20)*%
X137240000Y-89500000D03*
%TO.P,A1,21,D6*%
%TO.N,unconnected-(A1-D6-Pad21)*%
X139780000Y-89500000D03*
%TO.P,A1,22,D7*%
%TO.N,Net-(A1-D7)*%
X142320000Y-89500000D03*
%TO.P,A1,23,D8*%
%TO.N,Net-(A1-D8)*%
X146380000Y-89500000D03*
%TO.P,A1,24,D9*%
%TO.N,unconnected-(A1-D9-Pad24)*%
X148920000Y-89500000D03*
%TO.P,A1,25,D10*%
%TO.N,unconnected-(A1-D10-Pad25)*%
X151460000Y-89500000D03*
%TO.P,A1,26,D11*%
%TO.N,Net-(A1-D11)*%
X154000000Y-89500000D03*
%TO.P,A1,27,D12*%
%TO.N,Net-(A1-D12)*%
X156540000Y-89500000D03*
%TO.P,A1,28,D13*%
%TO.N,Net-(A1-D13)*%
X159080000Y-89500000D03*
%TO.P,A1,29,GND*%
%TO.N,Net-(ECG_Arduino1-GND)*%
X161620000Y-89500000D03*
%TO.P,A1,30,AREF*%
%TO.N,unconnected-(A1-AREF-Pad30)*%
X164160000Y-89500000D03*
%TO.P,A1,31,SDA/A4*%
%TO.N,Net-(IR1-SDA)*%
X166700000Y-89500000D03*
%TO.P,A1,32,SCL/A5*%
%TO.N,Net-(IR1-SCL)*%
X169240000Y-89500000D03*
%TD*%
D14*
%TO.N,Net-(A1-3V3)*%
X154500000Y-46500000D03*
X156000000Y-67500000D03*
%TO.N,Net-(A1-+5V)*%
X149500000Y-63500000D03*
X137500000Y-70500000D03*
%TO.N,Net-(A1-D13)*%
X156500000Y-86500000D03*
X146500000Y-85500000D03*
%TO.N,Net-(IR1-SCL)*%
X156500000Y-58500000D03*
X139000000Y-57000000D03*
%TO.N,Net-(A1-D11)*%
X150459040Y-87557247D03*
X151500000Y-84000000D03*
%TO.N,Net-(ECG_Arduino1-GND)*%
X132462412Y-74612764D03*
X154000000Y-59500000D03*
X133000000Y-53500000D03*
%TO.N,Net-(A1-D7)*%
X150000000Y-75000000D03*
X140000000Y-87000000D03*
%TO.N,Net-(IR1-SDA)*%
X124500000Y-71500000D03*
X162500000Y-78500000D03*
X154000000Y-54000000D03*
X164500000Y-87500000D03*
X133000000Y-73000000D03*
%TD*%
D15*
%TO.N,Net-(U1-GND)*%
X147400000Y-66685500D02*
X143210500Y-70875000D01*
X147400000Y-41240000D02*
X147400000Y-66685500D01*
%TO.N,Net-(A1-3V3)*%
X152480000Y-44480000D02*
X152480000Y-41240000D01*
X149125500Y-67500000D02*
X156000000Y-67500000D01*
X145750500Y-70875000D02*
X149125500Y-67500000D01*
X154500000Y-46500000D02*
X152480000Y-44480000D01*
%TO.N,Net-(A1-D12)*%
X153540000Y-86500000D02*
X156540000Y-89500000D01*
X151215500Y-86500000D02*
X153540000Y-86500000D01*
X143210500Y-78495000D02*
X151215500Y-86500000D01*
%TO.N,Net-(A1-+5V)*%
X129000000Y-74380000D02*
X129000000Y-68500000D01*
X129000000Y-68500000D02*
X132500000Y-65000000D01*
X149940000Y-60250000D02*
X149940000Y-41240000D01*
X132500000Y-65000000D02*
X132500000Y-64500000D01*
X153190000Y-63500000D02*
X149940000Y-60250000D01*
X132500000Y-64500000D02*
X137500000Y-69500000D01*
X129340000Y-74380000D02*
X129000000Y-74380000D01*
X137500000Y-69500000D02*
X137500000Y-70500000D01*
X137000000Y-82040000D02*
X129340000Y-74380000D01*
X149500000Y-63500000D02*
X153190000Y-63500000D01*
%TO.N,Net-(A1-D13)*%
X141709500Y-80709500D02*
X141709500Y-77456000D01*
X141709500Y-77456000D02*
X143210500Y-75955000D01*
X156500000Y-86920000D02*
X159080000Y-89500000D01*
X146500000Y-85500000D02*
X141709500Y-80709500D01*
X156500000Y-86500000D02*
X156500000Y-86920000D01*
%TO.N,Net-(A1-D8)*%
X140500000Y-75000000D02*
X141625500Y-75000000D01*
X146380000Y-89500000D02*
X140500000Y-83620000D01*
X140500000Y-83620000D02*
X140500000Y-75000000D01*
X141625500Y-75000000D02*
X143210500Y-73415000D01*
%TO.N,Net-(IR1-SCL)*%
X129000000Y-79460000D02*
X134540000Y-85000000D01*
X137000000Y-76960000D02*
X137125500Y-76960000D01*
X156500000Y-58500000D02*
X156500000Y-61730000D01*
X139500000Y-84500000D02*
X139500000Y-79460000D01*
X137125500Y-76960000D02*
X139000000Y-75085500D01*
X139000000Y-75085500D02*
X139000000Y-57000000D01*
X156500000Y-61730000D02*
X158270000Y-63500000D01*
X139500000Y-79460000D02*
X137000000Y-76960000D01*
X134540000Y-85000000D02*
X139000000Y-85000000D01*
X159500000Y-79760000D02*
X159500000Y-65500000D01*
X169240000Y-89500000D02*
X159500000Y-79760000D01*
X159500000Y-65500000D02*
X158270000Y-64270000D01*
X158270000Y-64270000D02*
X158270000Y-63500000D01*
X139000000Y-85000000D02*
X139500000Y-84500000D01*
%TO.N,Net-(A1-D11)*%
X151500000Y-81704500D02*
X151500000Y-84000000D01*
X150459040Y-87557247D02*
X152057247Y-87557247D01*
X145750500Y-75955000D02*
X151500000Y-81704500D01*
X152057247Y-87557247D02*
X154000000Y-89500000D01*
%TO.N,Net-(ECG_Arduino1-GND)*%
X161620000Y-89500000D02*
X157369000Y-85249000D01*
X157369000Y-65139000D02*
X155730000Y-63500000D01*
X126000000Y-68460000D02*
X126000000Y-75000000D01*
X157369000Y-85249000D02*
X157369000Y-65139000D01*
X129960000Y-64500000D02*
X126000000Y-68460000D01*
X136000000Y-79500000D02*
X137000000Y-79500000D01*
X129960000Y-56540000D02*
X133000000Y-53500000D01*
X155730000Y-63500000D02*
X154000000Y-61770000D01*
X154000000Y-61770000D02*
X154000000Y-59500000D01*
X132462412Y-74612764D02*
X132462412Y-75962412D01*
X129960000Y-64500000D02*
X129960000Y-56540000D01*
X127920000Y-76920000D02*
X129000000Y-76920000D01*
X126000000Y-75000000D02*
X127920000Y-76920000D01*
X132462412Y-75962412D02*
X136000000Y-79500000D01*
%TO.N,Net-(A1-A1)*%
X135040000Y-41580000D02*
X134700000Y-41240000D01*
X135040000Y-64500000D02*
X135040000Y-41580000D01*
%TO.N,Net-(A1-D7)*%
X142320000Y-89320000D02*
X140000000Y-87000000D01*
X147335500Y-75000000D02*
X145750500Y-73415000D01*
X150000000Y-75000000D02*
X147335500Y-75000000D01*
X142320000Y-89500000D02*
X142320000Y-89320000D01*
%TO.N,Net-(IR1-SDA)*%
X160810000Y-63500000D02*
X160810000Y-76810000D01*
X135580000Y-73000000D02*
X137000000Y-74420000D01*
X124500000Y-77500000D02*
X124500000Y-71500000D01*
X160810000Y-63500000D02*
X160810000Y-60810000D01*
X160810000Y-60810000D02*
X154000000Y-54000000D01*
X160810000Y-76810000D02*
X162500000Y-78500000D01*
X133000000Y-73000000D02*
X135580000Y-73000000D01*
X164500000Y-87500000D02*
X164700000Y-87500000D01*
X129000000Y-82000000D02*
X124500000Y-77500000D01*
X164700000Y-87500000D02*
X166700000Y-89500000D01*
%TD*%
M02*
