M48
; DRILL file {KiCad 9.0.7} date 2026-02-17T18:01:16+0000
; FORMAT={-:-/ absolute / metric / decimal}
; #@! TF.CreationDate,2026-02-17T18:01:16+00:00
; #@! TF.GenerationSoftware,Kicad,Pcbnew,9.0.7
; #@! TF.FileFunction,Plated,1,2,PTH
FMAT,2
METRIC
; #@! TA.AperFunction,Plated,PTH,ViaDrill
T1C0.800
; #@! TA.AperFunction,Plated,PTH,ComponentDrill
T2C1.000
%
G90
G05
T1
X124.5Y-71.5
X132.462Y-74.613
X133.0Y-53.5
X133.0Y-73.0
X137.5Y-70.5
X139.0Y-57.0
X140.0Y-87.0
X146.5Y-85.5
X149.5Y-63.5
X150.0Y-75.0
X150.459Y-87.557
X151.5Y-84.0
X154.0Y-54.0
X154.0Y-59.5
X154.5Y-46.5
X156.0Y-67.5
X156.5Y-58.5
X156.5Y-86.5
X162.5Y-78.5
X164.5Y-87.5
T2
X124.54Y-41.24
X124.54Y-89.5
X127.08Y-41.24
X127.08Y-89.5
X129.0Y-74.38
X129.0Y-76.92
X129.0Y-79.46
X129.0Y-82.0
X129.62Y-41.24
X129.62Y-89.5
X129.96Y-64.5
X132.16Y-41.24
X132.16Y-89.5
X132.5Y-64.5
X134.7Y-41.24
X134.7Y-89.5
X135.04Y-64.5
X137.0Y-74.42
X137.0Y-76.96
X137.0Y-79.5
X137.0Y-82.04
X137.24Y-41.24
X137.24Y-89.5
X139.78Y-89.5
X142.32Y-41.24
X142.32Y-89.5
X143.21Y-70.875
X143.21Y-73.415
X143.21Y-75.955
X143.21Y-78.495
X144.86Y-41.24
X145.75Y-70.875
X145.75Y-73.415
X145.75Y-75.955
X145.75Y-78.495
X146.38Y-89.5
X147.4Y-41.24
X148.92Y-89.5
X149.94Y-41.24
X151.46Y-89.5
X152.48Y-41.24
X153.19Y-63.5
X154.0Y-89.5
X155.02Y-41.24
X155.73Y-63.5
X156.54Y-89.5
X157.56Y-41.24
X158.27Y-63.5
X159.08Y-89.5
X160.1Y-41.24
X160.81Y-63.5
X161.62Y-89.5
X164.16Y-89.5
X166.7Y-89.5
X169.24Y-89.5
M30
