M48
; DRILL file {KiCad 9.0.7} date 2026-02-17T17:54:16+0000
; FORMAT={-:-/ absolute / metric / decimal}
; #@! TF.CreationDate,2026-02-17T17:54:16+00:00
; #@! TF.GenerationSoftware,Kicad,Pcbnew,9.0.7
; #@! TF.FileFunction,Plated,1,2,PTH
FMAT,2
METRIC
; #@! TA.AperFunction,Plated,PTH,ViaDrill
T1C0.800
; #@! TA.AperFunction,Plated,PTH,ComponentDrill
T2C1.000
%
G90
G05
T1
X72.5Y-97.0
X73.0Y-107.0
X81.5Y-109.0
X84.0Y-114.5
X86.5Y-119.3
X93.0Y-117.3
X94.86Y-78.14
X96.5Y-118.6
X98.0Y-114.5
X98.5Y-119.5
X101.0Y-103.0
X101.5Y-119.0
X104.5Y-114.5
X105.0Y-83.5
X106.0Y-110.0
X106.0Y-113.0
X111.0Y-89.5
X112.04Y-95.46
T2
X72.0Y-73.24
X72.0Y-121.5
X74.54Y-73.24
X74.54Y-121.5
X75.5Y-100.0
X75.5Y-102.54
X75.5Y-105.08
X75.5Y-107.62
X77.08Y-73.24
X77.08Y-121.5
X78.04Y-100.0
X78.04Y-102.54
X78.04Y-105.08
X78.04Y-107.62
X79.62Y-73.24
X79.62Y-121.5
X82.16Y-73.24
X82.16Y-121.5
X84.7Y-73.24
X84.7Y-121.5
X87.24Y-121.5
X89.78Y-73.24
X89.78Y-121.5
X92.32Y-73.24
X93.84Y-121.5
X94.86Y-73.24
X96.38Y-121.5
X97.4Y-73.24
X98.92Y-121.5
X99.94Y-73.24
X101.46Y-121.5
X102.48Y-73.24
X104.0Y-121.5
X105.02Y-73.24
X106.54Y-121.5
X107.56Y-73.24
X108.5Y-98.11
X108.5Y-100.65
X108.5Y-103.19
X108.5Y-105.73
X108.5Y-108.27
X108.5Y-110.81
X108.5Y-113.35
X108.5Y-115.89
X109.08Y-121.5
X111.62Y-121.5
X114.16Y-121.5
X116.0Y-96.88
X116.0Y-99.42
X116.0Y-101.96
X116.0Y-104.5
X116.7Y-121.5
M30
