%TF.GenerationSoftware,KiCad,Pcbnew,9.0.7*%
%TF.CreationDate,2026-02-17T17:54:02+00:00*%
%TF.ProjectId,Lohithaksha_Receiver_PCB_Design_FYP,4c6f6869-7468-4616-9b73-68615f526563,rev?*%
%TF.SameCoordinates,Original*%
%TF.FileFunction,Copper,L2,Bot*%
%TF.FilePolarity,Positive*%
%FSLAX46Y46*%
G04 Gerber Fmt 4.6, Leading zero omitted, Abs format (unit mm)*
G04 Created by KiCad (PCBNEW 9.0.7) date 2026-02-17 17:54:02*
%MOMM*%
%LPD*%
G01*
G04 APERTURE LIST*
%TA.AperFunction,ComponentPad*%
%ADD10R,1.700000X1.700000*%
%TD*%
%TA.AperFunction,ComponentPad*%
%ADD11C,1.700000*%
%TD*%
%TA.AperFunction,ComponentPad*%
%ADD12R,1.600000X1.600000*%
%TD*%
%TA.AperFunction,ComponentPad*%
%ADD13O,1.600000X1.600000*%
%TD*%
%TA.AperFunction,ViaPad*%
%ADD14C,1.300000*%
%TD*%
%TA.AperFunction,Conductor*%
%ADD15C,0.500000*%
%TD*%
G04 APERTURE END LIST*
D10*
%TO.P,LCD_I2C_20X4,1,5V*%
%TO.N,+5V*%
X116000000Y-96880000D03*
D11*
%TO.P,LCD_I2C_20X4,2,GND*%
%TO.N,GND1*%
X116000000Y-99420000D03*
%TO.P,LCD_I2C_20X4,3,SCL*%
%TO.N,Net-(LCD_I2C_20X1-SCL)*%
X116000000Y-101960000D03*
%TO.P,LCD_I2C_20X4,4,SDA*%
%TO.N,Net-(LCD_I2C_20X1-SDA)*%
X116000000Y-104500000D03*
%TD*%
D10*
%TO.P,RF ,1,GND*%
%TO.N,GND*%
X75500000Y-100000000D03*
D11*
%TO.P,RF ,2,VCC*%
%TO.N,+3.3V*%
X78040000Y-100000000D03*
%TO.P,RF ,3,CE*%
%TO.N,Net-(A1-D8)*%
X75500000Y-102540000D03*
%TO.P,RF ,4,~{CSN}*%
%TO.N,Net-(A1-D7)*%
X78040000Y-102540000D03*
%TO.P,RF ,5,SCK*%
%TO.N,Net-(A1-D13)*%
X75500000Y-105080000D03*
%TO.P,RF ,6,MOSI*%
%TO.N,Net-(A1-D11)*%
X78040000Y-105080000D03*
%TO.P,RF ,7,MISO*%
%TO.N,Net-(A1-D12)*%
X75500000Y-107620000D03*
%TO.P,RF ,8,IRQ*%
%TO.N,unconnected-(U1-IRQ-Pad8)*%
X78040000Y-107620000D03*
%TD*%
D10*
%TO.P,WPI405_RFID,1,3V3*%
%TO.N,+3.3V*%
X108500000Y-98110000D03*
D11*
%TO.P,WPI405_RFID,2,RST*%
%TO.N,Net-(A1-D9)*%
X108500000Y-100650000D03*
%TO.P,WPI405_RFID,3,GND*%
%TO.N,GND*%
X108500000Y-103190000D03*
%TO.P,WPI405_RFID,4,MISO*%
%TO.N,Net-(A1-D12)*%
X108500000Y-105730000D03*
%TO.P,WPI405_RFID,5,MOSI*%
%TO.N,Net-(A1-D11)*%
X108500000Y-108270000D03*
%TO.P,WPI405_RFID,6,SCK*%
%TO.N,Net-(A1-D13)*%
X108500000Y-110810000D03*
%TO.P,WPI405_RFID,7,NSS*%
%TO.N,Net-(A1-D10)*%
X108500000Y-113350000D03*
%TO.P,WPI405_RFID,8,IRQ*%
%TO.N,unconnected-(WPI405_RFID1-IRQ-Pad8)*%
X108500000Y-115890000D03*
%TD*%
D12*
%TO.P,Arduino R3,1,NC*%
%TO.N,unconnected-(A1-NC-Pad1)*%
X107560000Y-73240000D03*
D13*
%TO.P,Arduino R3,2,IOREF*%
%TO.N,unconnected-(A1-IOREF-Pad2)*%
X105020000Y-73240000D03*
%TO.P,Arduino R3,3,~{RESET}*%
%TO.N,unconnected-(A1-~{RESET}-Pad3)*%
X102480000Y-73240000D03*
%TO.P,Arduino R3,4,3V3*%
%TO.N,+3.3V*%
X99940000Y-73240000D03*
%TO.P,Arduino R3,5,+5V*%
%TO.N,+5V*%
X97400000Y-73240000D03*
%TO.P,Arduino R3,6,GND*%
%TO.N,GND1*%
X94860000Y-73240000D03*
%TO.P,Arduino R3,7,GND*%
%TO.N,GND*%
X92320000Y-73240000D03*
%TO.P,Arduino R3,8,VIN*%
%TO.N,unconnected-(A1-VIN-Pad8)*%
X89780000Y-73240000D03*
%TO.P,Arduino R3,9,A0*%
%TO.N,unconnected-(A1-A0-Pad9)*%
X84700000Y-73240000D03*
%TO.P,Arduino R3,10,A1*%
%TO.N,unconnected-(A1-A1-Pad10)*%
X82160000Y-73240000D03*
%TO.P,Arduino R3,11,A2*%
%TO.N,unconnected-(A1-A2-Pad11)*%
X79620000Y-73240000D03*
%TO.P,Arduino R3,12,A3*%
%TO.N,unconnected-(A1-A3-Pad12)*%
X77080000Y-73240000D03*
%TO.P,Arduino R3,13,SDA/A4*%
%TO.N,unconnected-(A1-SDA{slash}A4-Pad13)*%
X74540000Y-73240000D03*
%TO.P,Arduino R3,14,SCL/A5*%
%TO.N,unconnected-(A1-SCL{slash}A5-Pad14)*%
X72000000Y-73240000D03*
%TO.P,Arduino R3,15,D0/RX*%
%TO.N,unconnected-(A1-D0{slash}RX-Pad15)*%
X72000000Y-121500000D03*
%TO.P,Arduino R3,16,D1/TX*%
%TO.N,unconnected-(A1-D1{slash}TX-Pad16)*%
X74540000Y-121500000D03*
%TO.P,Arduino R3,17,D2*%
%TO.N,unconnected-(A1-D2-Pad17)*%
X77080000Y-121500000D03*
%TO.P,Arduino R3,18,D3*%
%TO.N,unconnected-(A1-D3-Pad18)*%
X79620000Y-121500000D03*
%TO.P,Arduino R3,19,D4*%
%TO.N,unconnected-(A1-D4-Pad19)*%
X82160000Y-121500000D03*
%TO.P,Arduino R3,20,D5*%
%TO.N,unconnected-(A1-D5-Pad20)*%
X84700000Y-121500000D03*
%TO.P,Arduino R3,21,D6*%
%TO.N,unconnected-(A1-D6-Pad21)*%
X87240000Y-121500000D03*
%TO.P,Arduino R3,22,D7*%
%TO.N,Net-(A1-D7)*%
X89780000Y-121500000D03*
%TO.P,Arduino R3,23,D8*%
%TO.N,Net-(A1-D8)*%
X93840000Y-121500000D03*
%TO.P,Arduino R3,24,D9*%
%TO.N,Net-(A1-D9)*%
X96380000Y-121500000D03*
%TO.P,Arduino R3,25,D10*%
%TO.N,Net-(A1-D10)*%
X98920000Y-121500000D03*
%TO.P,Arduino R3,26,D11*%
%TO.N,Net-(A1-D11)*%
X101460000Y-121500000D03*
%TO.P,Arduino R3,27,D12*%
%TO.N,Net-(A1-D12)*%
X104000000Y-121500000D03*
%TO.P,Arduino R3,28,D13*%
%TO.N,Net-(A1-D13)*%
X106540000Y-121500000D03*
%TO.P,Arduino R3,29,GND*%
%TO.N,unconnected-(A1-GND-Pad29)*%
X109080000Y-121500000D03*
%TO.P,Arduino R3,30,AREF*%
%TO.N,unconnected-(A1-AREF-Pad30)*%
X111620000Y-121500000D03*
%TO.P,Arduino R3,31,SDA/A4*%
%TO.N,Net-(LCD_I2C_20X1-SDA)*%
X114160000Y-121500000D03*
%TO.P,Arduino R3,32,SCL/A5*%
%TO.N,Net-(LCD_I2C_20X1-SCL)*%
X116700000Y-121500000D03*
%TD*%
D14*
%TO.N,Net-(A1-D10)*%
X106000000Y-113000000D03*
X98500000Y-119500000D03*
%TO.N,+5V*%
X105000000Y-83500000D03*
X111000000Y-89500000D03*
%TO.N,Net-(A1-D11)*%
X81500000Y-109000000D03*
X93000000Y-117300000D03*
X101500000Y-119000000D03*
X104500000Y-114500000D03*
%TO.N,GND1*%
X112040000Y-95460000D03*
X94860000Y-78140000D03*
%TO.N,GND*%
X72500000Y-97000000D03*
X101000000Y-103000000D03*
%TO.N,Net-(A1-D7)*%
X84000000Y-114500000D03*
X86500000Y-119300000D03*
%TO.N,Net-(A1-D9)*%
X98000000Y-114500000D03*
X96500000Y-118600000D03*
%TO.N,Net-(A1-D13)*%
X73000000Y-107000000D03*
X106000000Y-110000000D03*
%TD*%
D15*
%TO.N,+3.3V*%
X108500000Y-98110000D02*
X108500000Y-81800000D01*
X79930000Y-98110000D02*
X108500000Y-98110000D01*
X78040000Y-100000000D02*
X79930000Y-98110000D01*
X108500000Y-81800000D02*
X99940000Y-73240000D01*
%TO.N,Net-(A1-D10)*%
X108500000Y-113350000D02*
X106350000Y-113350000D01*
X98500000Y-119500000D02*
X98500000Y-121080000D01*
X98500000Y-121080000D02*
X98920000Y-121500000D01*
X106350000Y-113350000D02*
X106000000Y-113000000D01*
%TO.N,+5V*%
X105000000Y-83500000D02*
X97400000Y-75900000D01*
X116000000Y-96880000D02*
X116000000Y-94500000D01*
X116000000Y-94500000D02*
X111000000Y-89500000D01*
X97400000Y-75900000D02*
X97400000Y-73240000D01*
%TO.N,Net-(A1-D12)*%
X75500000Y-115500000D02*
X76000000Y-116000000D01*
X103000000Y-116500000D02*
X104000000Y-117500000D01*
X108500000Y-105730000D02*
X104270000Y-105730000D01*
X102500000Y-116000000D02*
X103000000Y-116500000D01*
X76000000Y-116000000D02*
X102500000Y-116000000D01*
X75500000Y-107620000D02*
X75500000Y-115500000D01*
X104270000Y-105730000D02*
X102500000Y-107500000D01*
X102500000Y-107500000D02*
X102500000Y-116000000D01*
X104000000Y-117500000D02*
X104000000Y-121500000D01*
%TO.N,Net-(A1-D11)*%
X104500000Y-108270000D02*
X104500000Y-114500000D01*
X81500000Y-108540000D02*
X78040000Y-105080000D01*
X81500000Y-109000000D02*
X81500000Y-108540000D01*
X108500000Y-108270000D02*
X104500000Y-108270000D01*
X99800000Y-117300000D02*
X101500000Y-119000000D01*
X101500000Y-119000000D02*
X101500000Y-121460000D01*
X101500000Y-121460000D02*
X101460000Y-121500000D01*
X93000000Y-117300000D02*
X99800000Y-117300000D01*
%TO.N,Net-(LCD_I2C_20X1-SCL)*%
X119500000Y-120500000D02*
X118500000Y-121500000D01*
X119500000Y-105460000D02*
X119500000Y-120500000D01*
X118500000Y-121500000D02*
X116700000Y-121500000D01*
X116000000Y-101960000D02*
X119500000Y-105460000D01*
%TO.N,GND1*%
X114797919Y-99420000D02*
X116000000Y-99420000D01*
X94860000Y-78140000D02*
X94860000Y-73240000D01*
X112040000Y-96662081D02*
X114797919Y-99420000D01*
X112040000Y-95460000D02*
X112040000Y-96662081D01*
%TO.N,Net-(A1-D8)*%
X74500000Y-118000000D02*
X91500000Y-118000000D01*
X75500000Y-102540000D02*
X72960000Y-102540000D01*
X71000000Y-104500000D02*
X71000000Y-114500000D01*
X72960000Y-102540000D02*
X71000000Y-104500000D01*
X93840000Y-120340000D02*
X93840000Y-121500000D01*
X91500000Y-118000000D02*
X93840000Y-120340000D01*
X71000000Y-114500000D02*
X74500000Y-118000000D01*
%TO.N,GND*%
X75500000Y-90060000D02*
X92320000Y-73240000D01*
X72500000Y-98500000D02*
X74000000Y-100000000D01*
X75500000Y-100000000D02*
X75500000Y-90060000D01*
X108310000Y-103000000D02*
X108500000Y-103190000D01*
X101000000Y-103000000D02*
X108310000Y-103000000D01*
X74000000Y-100000000D02*
X75500000Y-100000000D01*
X72500000Y-97000000D02*
X72500000Y-98500000D01*
%TO.N,Net-(A1-D7)*%
X84000000Y-114500000D02*
X84000000Y-108500000D01*
X84000000Y-108500000D02*
X78040000Y-102540000D01*
X87580000Y-119300000D02*
X89780000Y-121500000D01*
X86500000Y-119300000D02*
X87580000Y-119300000D01*
%TO.N,Net-(A1-D9)*%
X99700000Y-99800000D02*
X98000000Y-101500000D01*
X96500000Y-121380000D02*
X96380000Y-121500000D01*
X108500000Y-100650000D02*
X107650000Y-99800000D01*
X96500000Y-118600000D02*
X96500000Y-121380000D01*
X98000000Y-101500000D02*
X98000000Y-114500000D01*
X107650000Y-99800000D02*
X99700000Y-99800000D01*
%TO.N,Net-(LCD_I2C_20X1-SDA)*%
X116000000Y-104500000D02*
X114160000Y-106340000D01*
X114160000Y-106340000D02*
X114160000Y-121500000D01*
%TO.N,Net-(A1-D13)*%
X106000000Y-110000000D02*
X106810000Y-110810000D01*
X108540000Y-119500000D02*
X106540000Y-121500000D01*
X108500000Y-110810000D02*
X106810000Y-110810000D01*
X111500000Y-113810000D02*
X111500000Y-119500000D01*
X108500000Y-110810000D02*
X111500000Y-113810000D01*
X73000000Y-107000000D02*
X73580000Y-107000000D01*
X111500000Y-119500000D02*
X108540000Y-119500000D01*
X73580000Y-107000000D02*
X75500000Y-105080000D01*
%TD*%
M02*
